<svg width="33" height="57" viewBox="0 0 33 57" fill="none" xmlns="http://www.w3.org/2000/svg">
<path d="M6.51146 27.891C6.37917 25.0416 8.65363 22.6591 11.5061 22.6591H27.031C29.8835 22.6591 32.1579 25.0416 32.0256 27.891L31.1899 45.8909C31.066 48.5593 28.8666 50.6591 26.1953 50.6591H12.3418C9.67053 50.6591 7.47107 48.5593 7.34718 45.891L6.51146 27.891Z" fill="black"/>
<path d="M31.2686 10.659C29.2686 9.85901 26.7686 18.3257 25.7686 22.659C27.7686 21.859 30.2686 22.8257 30.7686 23.659L31.2686 16.659C32.1019 14.9923 33.2686 11.459 31.2686 10.659Z" fill="black" stroke="white"/>
<path d="M18.7688 30.6589C18.7688 32.1589 17.2688 31.6589 15.2688 31.6589C13.7608 31.6589 13.6149 21.8874 13.7426 16.1589C13.7481 15.951 13.6402 16.0414 13.7524 15.7506C13.82 15.5752 13.9678 15.2611 14.2688 14.659C15.2688 12.659 19.7688 15.1589 18.7688 15.6589C17.7688 16.1589 18.7688 29.1589 18.7688 30.6589Z" fill="black"/>
<path d="M13.7688 15.1589C13.7593 15.4751 13.7504 15.8095 13.7426 16.1589M13.7426 16.1589C13.6149 21.8874 13.7608 31.6589 15.2688 31.6589C17.2688 31.6589 18.7688 32.1589 18.7688 30.6589C18.7688 29.1589 17.7688 16.1589 18.7688 15.6589C19.7688 15.1589 15.2688 12.659 14.2688 14.659C13.4688 16.259 13.7514 15.8256 13.7426 16.1589Z" stroke="white"/>
<path d="M20.2686 34.1591C19.4686 33.7591 19.2686 21.9924 19.2686 16.1591C19.7686 15.6591 21.0686 14.6591 22.2686 14.6591C23.4686 14.6591 24.1019 15.3257 24.2686 15.6591V18.1591C24.6019 22.8257 25.1686 32.4591 24.7686 33.6591C24.2686 35.1591 21.2686 34.6591 20.2686 34.1591Z" fill="black" stroke="white"/>
<path d="M1.26878 34.6591C2.86878 35.8591 6.60212 44.1591 8.26878 48.1591C13.9354 47.8257 20.6688 46.0591 18.2688 41.6591C15.8688 37.2591 13.2688 35.1591 10.2688 34.6591V33.1591L11.2688 31.1591C13.2688 31.1591 21.2688 28.3591 21.2688 27.1591C21.2688 25.9591 11.6021 26.8257 8.76878 26.1591C5.60211 28.4924 -0.331218 33.4591 1.26878 34.6591Z" fill="black" stroke="white"/>
<path d="M4.00009 1.05682C2.16058 1.79912 5.43554 15.159 7.76887 24.159C9.36887 22.559 12.2689 21.9923 13.2689 22.159C11.1022 15.159 6.73133 -0.0453054 4.00009 1.05682Z" fill="black" stroke="white"/>
<path d="M12 50.9999C9.56686 50.9999 8.33332 49.1666 7.99998 48.4999C7.49998 49.1666 6.79998 51.3999 7.99998 54.9999C19.6 58.1999 28.1667 56.3333 31 54.9999C31.5 51.9999 32.2 46.3999 31 47.9999C29.8 49.5999 29.5 49.4999 28 50.9999L12 50.9999Z" fill="black"/>
<path d="M13.5425 53.25V54L14.0825 53.6875V52.9375L14.3 52.8125V54.5625L14.0825 54.6875V53.9375L13.5425 54.25V55L13.325 55.125V53.375L13.5425 53.25ZM14.0825 53.9375V54.6875L13.865 54.5625V53.8125L14.0825 53.9375ZM14.3 52.8125L14.0825 52.9375L13.865 52.8125L14.0825 52.6875L14.3 52.8125ZM14.0825 52.9375V53.6875L13.865 53.5625V52.8125L14.0825 52.9375ZM14.0825 53.6875L13.5425 54L13.325 53.875L13.865 53.5625L14.0825 53.6875ZM13.5425 53.25L13.325 53.375L13.1075 53.25L13.325 53.125L13.5425 53.25ZM13.325 53.375V55.125L13.1075 55V53.25L13.325 53.375ZM14.9512 53.65L15.3837 53.4C15.4404 53.3667 15.4904 53.3625 15.5337 53.3875C15.577 53.4125 15.5987 53.4583 15.5987 53.525V53.9C15.5987 53.9433 15.5887 53.99 15.5687 54.04C15.5487 54.09 15.522 54.1367 15.4887 54.18C15.457 54.2217 15.422 54.2533 15.3837 54.275L15.1662 54.4C15.1095 54.4333 15.0595 54.4375 15.0162 54.4125C14.9729 54.3875 14.9512 54.3417 14.9512 54.275V54.85L15.5987 54.475V54.725L14.9512 55.1C14.8929 55.1333 14.842 55.1375 14.7987 55.1125C14.7554 55.0875 14.7337 55.0417 14.7337 54.975V54.025C14.7337 53.98 14.7437 53.9333 14.7637 53.885C14.7837 53.835 14.8104 53.7892 14.8437 53.7475C14.877 53.7042 14.9129 53.6717 14.9512 53.65ZM15.3837 53.65L14.9512 53.9V54.275L15.3837 54.025V53.65ZM15.5987 54.475L14.9512 54.85L14.7337 54.725L15.3837 54.35L15.5987 54.475ZM15.3837 53.65V54.025L15.1662 53.9V53.525L15.3837 53.65ZM14.9512 54.275C14.9512 54.3417 14.9729 54.3875 15.0162 54.4125L14.7987 54.2875C14.7554 54.2625 14.7337 54.2167 14.7337 54.15L14.9512 54.275ZM15.3837 54.025L14.9512 54.275L14.7337 54.15L15.1662 53.9L15.3837 54.025ZM15.5337 53.3875C15.4904 53.3625 15.4404 53.3667 15.3837 53.4L14.9512 53.65C14.9129 53.6717 14.877 53.7042 14.8437 53.7475C14.8104 53.7892 14.7837 53.835 14.7637 53.885C14.7437 53.9333 14.7337 53.98 14.7337 54.025V54.975C14.7337 55.0417 14.7554 55.0875 14.7987 55.1125L14.5812 54.9875C14.5379 54.9625 14.5162 54.9167 14.5162 54.85V53.9C14.5162 53.855 14.5262 53.8083 14.5462 53.76C14.5662 53.71 14.5929 53.6642 14.6262 53.6225C14.6595 53.5792 14.6954 53.5467 14.7337 53.525L15.1662 53.275C15.2245 53.2417 15.2754 53.2375 15.3187 53.2625L15.5337 53.3875ZM16.0325 53.875L16.25 53.75V54L16.465 53.875C16.465 53.83 16.475 53.7833 16.495 53.735C16.515 53.685 16.5417 53.6392 16.575 53.5975C16.6084 53.5542 16.6442 53.5217 16.6825 53.5L16.8975 53.375V53.625L16.6825 53.75C16.6825 53.7933 16.6725 53.84 16.6525 53.89C16.6325 53.94 16.6059 53.9867 16.5725 54.03C16.5392 54.0717 16.5034 54.1033 16.465 54.125L16.25 54.25V55L16.0325 55.125V53.875ZM16.0325 53.875V55.125L15.815 55V53.75L16.0325 53.875ZM16.8975 53.375L16.6825 53.5C16.6442 53.5217 16.6084 53.5542 16.575 53.5975C16.5417 53.6392 16.515 53.685 16.495 53.735C16.475 53.7833 16.465 53.83 16.465 53.875L16.25 53.75C16.25 53.705 16.26 53.6583 16.28 53.61C16.3 53.56 16.3259 53.5142 16.3575 53.4725C16.3909 53.4292 16.4267 53.3967 16.465 53.375L16.6825 53.25L16.8975 53.375ZM16.465 53.875L16.25 54L16.0325 53.875L16.25 53.75L16.465 53.875ZM16.25 53.75L16.0325 53.875L15.815 53.75L16.0325 53.625L16.25 53.75ZM17.2215 53.875L17.439 53.75V54L17.654 53.875C17.654 53.83 17.664 53.7833 17.684 53.735C17.704 53.685 17.7307 53.6392 17.764 53.5975C17.7973 53.5542 17.8332 53.5217 17.8715 53.5L18.0865 53.375V53.625L17.8715 53.75C17.8715 53.7933 17.8615 53.84 17.8415 53.89C17.8215 53.94 17.7948 53.9867 17.7615 54.03C17.7282 54.0717 17.6923 54.1033 17.654 54.125L17.439 54.25V55L17.2215 55.125V53.875ZM17.2215 53.875V55.125L17.004 55V53.75L17.2215 53.875ZM18.0865 53.375L17.8715 53.5C17.8332 53.5217 17.7973 53.5542 17.764 53.5975C17.7307 53.6392 17.704 53.685 17.684 53.735C17.664 53.7833 17.654 53.83 17.654 53.875L17.439 53.75C17.439 53.705 17.449 53.6583 17.469 53.61C17.489 53.56 17.5148 53.5142 17.5465 53.4725C17.5798 53.4292 17.6157 53.3967 17.654 53.375L17.8715 53.25L18.0865 53.375ZM17.654 53.875L17.439 54L17.2215 53.875L17.439 53.75L17.654 53.875ZM17.439 53.75L17.2215 53.875L17.004 53.75L17.2215 53.625L17.439 53.75ZM18.6279 54.775C18.5696 54.8083 18.5188 54.8125 18.4754 54.7875C18.4321 54.7625 18.4104 54.7167 18.4104 54.65V53.875L18.6279 53.75V54.525L19.0604 54.275V53.5L19.2754 53.375V54.725C19.2754 54.7683 19.2654 54.815 19.2454 54.865C19.2254 54.915 19.1988 54.9608 19.1654 55.0025C19.1338 55.0458 19.0988 55.0783 19.0604 55.1L18.4104 55.475V55.225L19.0604 54.85V54.275C19.0604 54.3183 19.0504 54.365 19.0304 54.415C19.0104 54.465 18.9838 54.5117 18.9504 54.555C18.9171 54.5967 18.8813 54.6283 18.8429 54.65L18.6279 54.775ZM19.0604 54.275V54.85L18.8429 54.725V54.15L19.0604 54.275ZM19.0604 54.85L18.4104 55.225L18.1929 55.1L18.8429 54.725L19.0604 54.85ZM18.4104 55.225V55.475L18.1929 55.35V55.1L18.4104 55.225ZM19.2754 53.375L19.0604 53.5L18.8429 53.375L19.0604 53.25L19.2754 53.375ZM19.0604 53.5V54.275L18.8429 54.15V53.375L19.0604 53.5ZM19.0604 54.275L18.6279 54.525L18.4104 54.4L18.8429 54.15L19.0604 54.275ZM18.6279 53.75L18.4104 53.875L18.1929 53.75L18.4104 53.625L18.6279 53.75ZM18.4104 53.875V54.65C18.4104 54.7167 18.4321 54.7625 18.4754 54.7875L18.2579 54.6625C18.2146 54.6375 18.1929 54.5917 18.1929 54.525V53.75L18.4104 53.875ZM20.5762 54L21.1162 53.6875V53.1875L20.3587 53.625V53.375L21.3337 52.8125V53.5625C21.3337 53.6058 21.3229 53.6525 21.3012 53.7025C21.2812 53.7525 21.2545 53.7992 21.2212 53.8425C21.1895 53.8842 21.1545 53.9158 21.1162 53.9375L20.5762 54.25V54.75L21.3337 54.3125V54.5625L20.3587 55.125V54.375C20.3587 54.33 20.3687 54.2833 20.3887 54.235C20.4087 54.185 20.4354 54.1392 20.4687 54.0975C20.502 54.0542 20.5379 54.0217 20.5762 54ZM21.1162 53.1875V53.6875L20.8987 53.5625V53.0625L21.1162 53.1875ZM21.3337 54.3125L20.5762 54.75L20.3587 54.625L21.1162 54.1875L21.3337 54.3125ZM21.1162 53.6875L20.5762 54C20.5379 54.0217 20.502 54.0542 20.4687 54.0975C20.4354 54.1392 20.4087 54.185 20.3887 54.235C20.3687 54.2833 20.3587 54.33 20.3587 54.375V55.125L20.1412 55V54.25C20.1412 54.205 20.1512 54.1583 20.1712 54.11C20.1912 54.06 20.2179 54.0142 20.2512 53.9725C20.2845 53.9292 20.3204 53.8967 20.3587 53.875L20.8987 53.5625L21.1162 53.6875ZM21.3337 52.8125L20.3587 53.375L20.1412 53.25L21.1162 52.6875L21.3337 52.8125ZM20.3587 53.375V53.625L20.1412 53.5V53.25L20.3587 53.375ZM21.9849 53.65L22.4174 53.4C22.474 53.3667 22.524 53.3625 22.5674 53.3875C22.6107 53.4125 22.6324 53.4583 22.6324 53.525V53.9C22.6324 53.9433 22.6224 53.99 22.6024 54.04C22.5824 54.09 22.5557 54.1367 22.5224 54.18C22.4907 54.2217 22.4557 54.2533 22.4174 54.275L22.1999 54.4C22.1432 54.4333 22.0932 54.4375 22.0499 54.4125C22.0065 54.3875 21.9849 54.3417 21.9849 54.275V54.85L22.6324 54.475V54.725L21.9849 55.1C21.9265 55.1333 21.8757 55.1375 21.8324 55.1125C21.789 55.0875 21.7674 55.0417 21.7674 54.975V54.025C21.7674 53.98 21.7774 53.9333 21.7974 53.885C21.8174 53.835 21.844 53.7892 21.8774 53.7475C21.9107 53.7042 21.9465 53.6717 21.9849 53.65ZM22.4174 53.65L21.9849 53.9V54.275L22.4174 54.025V53.65ZM22.6324 54.475L21.9849 54.85L21.7674 54.725L22.4174 54.35L22.6324 54.475ZM22.4174 53.65V54.025L22.1999 53.9V53.525L22.4174 53.65ZM21.9849 54.275C21.9849 54.3417 22.0065 54.3875 22.0499 54.4125L21.8324 54.2875C21.789 54.2625 21.7674 54.2167 21.7674 54.15L21.9849 54.275ZM22.4174 54.025L21.9849 54.275L21.7674 54.15L22.1999 53.9L22.4174 54.025ZM22.5674 53.3875C22.524 53.3625 22.474 53.3667 22.4174 53.4L21.9849 53.65C21.9465 53.6717 21.9107 53.7042 21.8774 53.7475C21.844 53.7892 21.8174 53.835 21.7974 53.885C21.7774 53.9333 21.7674 53.98 21.7674 54.025V54.975C21.7674 55.0417 21.789 55.0875 21.8324 55.1125L21.6149 54.9875C21.5715 54.9625 21.5499 54.9167 21.5499 54.85V53.9C21.5499 53.855 21.5599 53.8083 21.5799 53.76C21.5999 53.71 21.6265 53.6642 21.6599 53.6225C21.6932 53.5792 21.729 53.5467 21.7674 53.525L22.1999 53.275C22.2582 53.2417 22.309 53.2375 22.3524 53.2625L22.5674 53.3875ZM23.0662 53.775L23.2837 53.65V53.9C23.2837 53.855 23.2937 53.8083 23.3137 53.76C23.3337 53.71 23.3595 53.6642 23.3912 53.6225C23.4245 53.5792 23.4604 53.5467 23.4987 53.525L23.7162 53.4C23.7729 53.3667 23.8229 53.3625 23.8662 53.3875C23.9095 53.4125 23.9312 53.4583 23.9312 53.525V54.625L23.7162 54.75V53.65L23.2837 53.9V55L23.0662 55.125V53.775ZM23.7162 53.65V54.75L23.4987 54.625V53.525L23.7162 53.65ZM23.0662 53.775V55.125L22.8487 55V53.65L23.0662 53.775ZM23.8662 53.3875C23.8229 53.3625 23.7729 53.3667 23.7162 53.4L23.4987 53.525C23.4604 53.5467 23.4245 53.5792 23.3912 53.6225C23.3595 53.6642 23.3337 53.71 23.3137 53.76C23.2937 53.8083 23.2837 53.855 23.2837 53.9L23.0662 53.775C23.0662 53.73 23.0762 53.6833 23.0962 53.635C23.1162 53.585 23.1429 53.5392 23.1762 53.4975C23.2095 53.4542 23.2454 53.4217 23.2837 53.4L23.4987 53.275C23.557 53.2417 23.6079 53.2375 23.6512 53.2625L23.8662 53.3875ZM23.2837 53.65L23.0662 53.775L22.8487 53.65L23.0662 53.525L23.2837 53.65ZM24.5825 54.775C24.5242 54.8083 24.4734 54.8125 24.43 54.7875C24.3867 54.7625 24.365 54.7167 24.365 54.65V54.125C24.365 54.08 24.375 54.0333 24.395 53.985C24.415 53.935 24.4417 53.8892 24.475 53.8475C24.5084 53.8042 24.5442 53.7717 24.5825 53.75L24.7975 53.625C24.8559 53.5917 24.9067 53.5875 24.95 53.6125C24.9934 53.6375 25.015 53.6833 25.015 53.75V53.5L25.23 53.375V54.725C25.23 54.7683 25.22 54.815 25.2 54.865C25.18 54.915 25.1534 54.9608 25.12 55.0025C25.0884 55.0458 25.0534 55.0783 25.015 55.1L24.365 55.475V55.225L25.015 54.85V54.275C25.015 54.3183 25.005 54.365 24.985 54.415C24.965 54.465 24.9384 54.5117 24.905 54.555C24.8717 54.5967 24.8359 54.6283 24.7975 54.65L24.5825 54.775ZM24.5825 54.525L25.015 54.275V53.75L24.5825 54V54.525ZM25.015 54.275V54.85L24.7975 54.725V54.15L25.015 54.275ZM25.015 54.85L24.365 55.225L24.1475 55.1L24.7975 54.725L25.015 54.85ZM24.365 55.225V55.475L24.1475 55.35V55.1L24.365 55.225ZM25.23 53.375L25.015 53.5L24.7975 53.375L25.015 53.25L25.23 53.375ZM25.015 53.5V53.75L24.7975 53.625V53.375L25.015 53.5ZM25.015 53.75V54.275L24.7975 54.15V53.625L25.015 53.75ZM25.015 54.275L24.5825 54.525L24.365 54.4L24.7975 54.15L25.015 54.275ZM24.95 53.6125C24.9067 53.5875 24.8559 53.5917 24.7975 53.625L24.5825 53.75C24.5442 53.7717 24.5084 53.8042 24.475 53.8475C24.4417 53.8892 24.415 53.935 24.395 53.985C24.375 54.0333 24.365 54.08 24.365 54.125V54.65C24.365 54.7167 24.3867 54.7625 24.43 54.7875L24.2125 54.6625C24.1692 54.6375 24.1475 54.5917 24.1475 54.525V54C24.1475 53.955 24.1575 53.9083 24.1775 53.86C24.1975 53.81 24.2242 53.7642 24.2575 53.7225C24.2909 53.6792 24.3267 53.6467 24.365 53.625L24.5825 53.5C24.6392 53.4667 24.6892 53.4625 24.7325 53.4875L24.95 53.6125Z" fill="white"/>
</svg>
