<svg width="36" height="26" viewBox="0 0 36 26" fill="none" xmlns="http://www.w3.org/2000/svg">
<path d="M15.0795 17H14.0227C13.9602 16.696 13.8509 16.429 13.6946 16.1989C13.5412 15.9688 13.3537 15.7756 13.1321 15.6193C12.9134 15.4602 12.6705 15.3409 12.4034 15.2614C12.1364 15.1818 11.858 15.142 11.5682 15.142C11.0398 15.142 10.5611 15.2756 10.1321 15.5426C9.70597 15.8097 9.36648 16.2031 9.11364 16.723C8.86364 17.2429 8.73864 17.8807 8.73864 18.6364C8.73864 19.392 8.86364 20.0298 9.11364 20.5497C9.36648 21.0696 9.70597 21.4631 10.1321 21.7301C10.5611 21.9972 11.0398 22.1307 11.5682 22.1307C11.858 22.1307 12.1364 22.0909 12.4034 22.0114C12.6705 21.9318 12.9134 21.8139 13.1321 21.6577C13.3537 21.4986 13.5412 21.304 13.6946 21.0739C13.8509 20.8409 13.9602 20.5739 14.0227 20.2727H15.0795C15 20.7187 14.8551 21.1179 14.6449 21.4702C14.4347 21.8224 14.1733 22.1222 13.8608 22.3693C13.5483 22.6136 13.1974 22.7997 12.8082 22.9276C12.4219 23.0554 12.0085 23.1193 11.5682 23.1193C10.8239 23.1193 10.1619 22.9375 9.58239 22.5739C9.00284 22.2102 8.54688 21.6932 8.21449 21.0227C7.8821 20.3523 7.71591 19.5568 7.71591 18.6364C7.71591 17.7159 7.8821 16.9205 8.21449 16.25C8.54688 15.5795 9.00284 15.0625 9.58239 14.6989C10.1619 14.3352 10.8239 14.1534 11.5682 14.1534C12.0085 14.1534 12.4219 14.2173 12.8082 14.3452C13.1974 14.473 13.5483 14.6605 13.8608 14.9077C14.1733 15.152 14.4347 15.4503 14.6449 15.8026C14.8551 16.152 15 16.5511 15.0795 17ZM17.6566 14.2727V23H16.6509V14.2727H17.6566ZM19.4986 23V16.4545H20.5043V23H19.4986ZM20.0099 15.3636C19.8139 15.3636 19.6449 15.2969 19.5028 15.1634C19.3636 15.0298 19.294 14.8693 19.294 14.6818C19.294 14.4943 19.3636 14.3338 19.5028 14.2003C19.6449 14.0668 19.8139 14 20.0099 14C20.206 14 20.3736 14.0668 20.5128 14.2003C20.6548 14.3338 20.7259 14.4943 20.7259 14.6818C20.7259 14.8693 20.6548 15.0298 20.5128 15.1634C20.3736 15.2969 20.206 15.3636 20.0099 15.3636ZM25.0053 23.1364C24.3917 23.1364 23.8633 22.9915 23.4201 22.7017C22.9769 22.4119 22.636 22.0128 22.3974 21.5043C22.1587 20.9957 22.0394 20.4148 22.0394 19.7614C22.0394 19.0966 22.1616 18.5099 22.4059 18.0014C22.6531 17.4901 22.9968 17.0909 23.4371 16.804C23.8803 16.5142 24.3974 16.3693 24.9883 16.3693C25.4485 16.3693 25.8633 16.4545 26.2326 16.625C26.6019 16.7955 26.9045 17.0341 27.1403 17.3409C27.3761 17.6477 27.5224 18.0057 27.5792 18.4148H26.5735C26.4968 18.1165 26.3263 17.8523 26.0621 17.6222C25.8008 17.3892 25.4485 17.2727 25.0053 17.2727C24.6133 17.2727 24.2695 17.375 23.9741 17.5795C23.6815 17.7812 23.4528 18.0668 23.288 18.4361C23.1261 18.8026 23.0451 19.233 23.0451 19.7273C23.0451 20.233 23.1246 20.6733 23.2837 21.0483C23.4457 21.4233 23.6729 21.7145 23.9656 21.9219C24.261 22.1293 24.6076 22.233 25.0053 22.233C25.2667 22.233 25.5039 22.1875 25.717 22.0966C25.93 22.0057 26.1104 21.875 26.2582 21.7045C26.4059 21.5341 26.511 21.3295 26.5735 21.0909H27.5792C27.5224 21.4773 27.3817 21.8253 27.1573 22.1349C26.9357 22.4418 26.6417 22.6861 26.2752 22.8679C25.9116 23.0469 25.4883 23.1364 25.0053 23.1364ZM29.9869 20.6136L29.9698 19.3693H30.1744L33.038 16.4545H34.2823L31.2312 19.5398H31.146L29.9869 20.6136ZM29.0494 23V14.2727H30.055V23H29.0494ZM33.2085 23L30.6516 19.7614L31.3675 19.0625L34.4869 23H33.2085Z" fill="#A6A6A6"/>
<path d="M2.0735 0.505388C1.80035 0.464815 1.54603 0.653351 1.50546 0.926497L0.844277 5.37766C0.803704 5.6508 0.99224 5.90512 1.26539 5.9457C1.53853 5.98627 1.79285 5.79773 1.83342 5.52459L2.42114 1.568L6.37773 2.15572C6.65088 2.19629 6.9052 2.00776 6.94577 1.73461C6.98634 1.46147 6.79781 1.20715 6.52466 1.16657L2.0735 0.505388ZM9.54815 10.3421L2.4017 0.702193L1.59837 1.29773L8.74482 10.9377L9.54815 10.3421Z" fill="#A6A6A6"/>
</svg>
