<svg width="1698" height="1108" viewBox="0 0 1698 1108" fill="none" xmlns="http://www.w3.org/2000/svg">
<line y1="34.5176" x2="1701.14" y2="34.5176" stroke="#F5F5F5" stroke-width="3"/>
<line y1="-1.5" x2="1091.63" y2="-1.5" transform="matrix(0.00349796 -0.999994 0.999997 0.00262514 86.9463 1091.62)" stroke="#F5F5F5" stroke-width="3"/>
<line y1="-1.5" x2="1091.63" y2="-1.5" transform="matrix(0.00349796 -0.999994 0.999997 0.00262514 468.797 1094.9)" stroke="#F5F5F5" stroke-width="3"/>
<line y1="-1.5" x2="1091.63" y2="-1.5" transform="matrix(0.00349796 -0.999994 0.999997 0.00262514 850.646 1108)" stroke="#F5F5F5" stroke-width="3"/>
<line y1="-1.5" x2="1091.63" y2="-1.5" transform="matrix(0.00349796 -0.999994 0.999997 0.00262514 1232.5 1108)" stroke="#F5F5F5" stroke-width="3"/>
<line y1="-1.5" x2="1091.63" y2="-1.5" transform="matrix(0.00349796 -0.999994 0.999997 0.00262514 1614.34 1108)" stroke="#F5F5F5" stroke-width="3"/>
<line y1="291.05" x2="1701.14" y2="291.05" stroke="#F5F5F5" stroke-width="3"/>
<line x1="13.8613" y1="547.582" x2="1715" y2="547.582" stroke="#F5F5F5" stroke-width="3"/>
<line x1="13.8613" y1="804.114" x2="1715" y2="804.114" stroke="#F5F5F5" stroke-width="3"/>
<line x1="13.8613" y1="1060.65" x2="1715" y2="1060.65" stroke="#F5F5F5" stroke-width="3"/>
</svg>
