<svg width="351" height="164" viewBox="0 0 351 164" fill="none" xmlns="http://www.w3.org/2000/svg">
<path d="M69.5957 73.3408V68.4507H86.7111V73.3408H69.5957Z" fill="white"/>
<path d="M83.5332 68.4502H88.4233V83.1205H83.5332V68.4502Z" fill="white"/>
<path fill-rule="evenodd" clip-rule="evenodd" d="M51.0137 68.0842C51.0137 60.0495 57.5271 53.5361 65.5618 53.5361H72.1634C79.1496 53.5361 84.9857 58.4605 86.3899 65.0276H81.0084C79.6996 60.8616 75.8075 57.8398 71.2095 57.8398H66.5639C60.8924 57.8398 56.2947 62.4375 56.2947 68.1091C56.2947 73.7806 60.8924 78.3783 66.5639 78.3783H71.2095C74.9704 78.3783 78.259 76.3567 80.048 73.3408H85.7328C83.6253 78.7775 78.3445 82.6323 72.1634 82.6323H65.5618C57.5271 82.6323 51.0137 76.1189 51.0137 68.0842Z" fill="white"/>
<rect x="46.3164" y="82.9639" width="6.35715" height="29.3407" transform="rotate(180 46.3164 82.9639)" fill="white"/>
<rect x="99.4756" y="82.9639" width="6.35715" height="29.3407" transform="rotate(180 99.4756 82.9639)" fill="white"/>
<path fill-rule="evenodd" clip-rule="evenodd" d="M20.5498 53.5361H0.200195V82.9648H20.5498C28.6763 82.9648 35.2641 76.3769 35.2641 68.2504C35.2641 60.124 28.6763 53.5361 20.5498 53.5361ZM19.6109 58.2324H5.83575V78.2689H19.6109C25.1438 78.2689 29.6291 73.7836 29.6291 68.2507C29.6291 62.7178 25.1438 58.2324 19.6109 58.2324Z" fill="white"/>
<rect x="125.241" y="83.249" width="6.35715" height="29.3407" transform="rotate(180 125.241 83.249)" fill="white"/>
<rect x="104.17" y="58.5449" width="5.00913" height="36.0032" transform="rotate(-90 104.17 58.5449)" fill="white"/>
<rect x="190.22" y="82.25" width="6.35715" height="29.3407" transform="rotate(180 190.22 82.25)" fill="white"/>
<rect x="183.863" y="82.3379" width="5.00913" height="20.9758" transform="rotate(-90 183.863 82.3379)" fill="white"/>
<rect x="151.303" y="73.5371" width="5.00913" height="20.6627" transform="rotate(-90 151.303 73.5371)" fill="white"/>
<path d="M158.509 53.1753L163.669 53.1753L150.114 82.5373L144.87 82.3724L158.509 53.1753Z" fill="white"/>
<path d="M165.542 53.0472L160.382 53.0472L173.937 82.4092L179.166 82.4095L165.542 53.0472Z" fill="white"/>
<rect x="297.488" y="127.578" width="6.3106" height="29.1256" transform="rotate(180 297.488 127.578)" fill="white"/>
<rect x="322.342" y="127.82" width="6.3106" height="29.1256" transform="rotate(180 322.342 127.82)" fill="white"/>
<rect width="4.85429" height="34.3721" transform="matrix(0.763607 -0.645681 0.645687 0.763602 293.799 101.587)" fill="white"/>
<path d="M264.619 117.742V112.852H281.735V117.742H264.619Z" fill="white"/>
<path d="M278.556 112.852H283.446V127.522H278.556V112.852Z" fill="white"/>
<path fill-rule="evenodd" clip-rule="evenodd" d="M246.037 112.484C246.037 104.449 252.55 97.9355 260.585 97.9355H267.186C274.173 97.9355 280.009 102.86 281.413 109.427H276.04C274.733 105.261 270.841 102.238 266.243 102.238H261.584C255.914 102.238 251.318 106.835 251.318 112.505C251.318 118.175 255.914 122.771 261.584 122.771H266.243C270 122.771 273.287 120.752 275.076 117.74H280.756C278.648 123.177 273.367 127.032 267.186 127.032H260.585C252.55 127.032 246.037 120.518 246.037 112.484Z" fill="white"/>
<rect x="238.304" y="127.834" width="6.35715" height="29.3407" transform="rotate(180 238.304 127.834)" fill="white"/>
<path fill-rule="evenodd" clip-rule="evenodd" d="M122.61 99.4834H102.261V128.912H122.61C130.737 128.912 137.325 122.324 137.325 114.198C137.325 106.071 130.737 99.4834 122.61 99.4834ZM121.728 104.18H107.897V124.183H121.728C127.252 124.183 131.73 119.705 131.73 114.181C131.73 108.658 127.252 104.18 121.728 104.18Z" fill="white"/>
<rect x="151.535" y="128.35" width="6.47766" height="29.8969" transform="rotate(180 151.535 128.35)" fill="white"/>
<rect x="151.535" y="128.35" width="4.98282" height="29.8969" transform="rotate(-90 151.535 128.35)" fill="white"/>
<rect x="151.535" y="115.892" width="4.98282" height="29.8969" transform="rotate(-90 151.535 115.892)" fill="white"/>
<rect x="151.535" y="103.435" width="4.98282" height="29.8969" transform="rotate(-90 151.535 103.435)" fill="white"/>
<path d="M223.393 109.818H217.099V106.349C217.099 102.88 206.074 102.355 200.809 102.88C194.515 103.507 193.831 109.905 200.809 110.665C226.864 113.503 224.133 115.807 224.133 119.279H218.21C218.21 114.23 197.57 115.802 192.387 111.828C188.685 108.99 185.635 98.0365 207.473 98.4643C226.355 98.8342 223.393 105.714 223.393 109.818Z" fill="white"/>
<path fill-rule="evenodd" clip-rule="evenodd" d="M218.218 118.96C218.347 121.118 215.763 123.932 211.943 124.313C206.672 124.837 195.634 124.628 195.634 121.161V117.698H195.424V117.693H189.333C189.333 118.161 189.294 118.666 189.254 119.192C188.941 123.279 188.524 128.713 205.271 129.041C220.915 129.347 224.609 123.405 224.086 118.96H218.218Z" fill="white"/>
<mask id="mask0_1055_380" style="mask-type:alpha" maskUnits="userSpaceOnUse" x="161" y="0" width="190" height="171">
<rect x="161.024" width="189.175" height="170.619" fill="black"/>
</mask>
<g mask="url(#mask0_1055_380)">
<rect x="190.22" y="82.25" width="6.35715" height="29.3407" transform="rotate(180 190.22 82.25)" fill="black"/>
<rect x="183.863" y="82.3379" width="5.00913" height="20.9758" transform="rotate(-90 183.863 82.3379)" fill="black"/>
<rect x="151.303" y="73.5371" width="5.00913" height="20.6627" transform="rotate(-90 151.303 73.5371)" fill="black"/>
<path d="M158.509 53.1753L163.669 53.1753L150.114 82.5373L144.87 82.3724L158.509 53.1753Z" fill="black"/>
<path d="M165.542 53.0472L160.382 53.0472L173.937 82.4092L179.166 82.4095L165.542 53.0472Z" fill="black"/>
<rect x="297.488" y="127.578" width="6.3106" height="29.1256" transform="rotate(180 297.488 127.578)" fill="black"/>
<rect x="322.342" y="127.82" width="6.3106" height="29.1256" transform="rotate(180 322.342 127.82)" fill="black"/>
<rect width="4.85429" height="34.3721" transform="matrix(0.763607 -0.645681 0.645687 0.763602 293.798 101.587)" fill="black"/>
<path d="M264.618 117.742V112.852H281.734V117.742H264.618Z" fill="black"/>
<path d="M278.555 112.852H283.445V127.522H278.555V112.852Z" fill="black"/>
<path fill-rule="evenodd" clip-rule="evenodd" d="M246.036 112.484C246.036 104.449 252.549 97.9355 260.584 97.9355H267.185C274.172 97.9355 280.008 102.86 281.412 109.427H276.039C274.732 105.261 270.84 102.238 266.242 102.238H261.583C255.913 102.238 251.317 106.835 251.317 112.505C251.317 118.175 255.913 122.771 261.583 122.771H266.242C270 122.771 273.286 120.752 275.075 117.74H280.755C278.647 123.177 273.366 127.032 267.185 127.032H260.584C252.549 127.032 246.036 120.518 246.036 112.484Z" fill="black"/>
<rect x="238.304" y="127.834" width="6.35715" height="29.3407" transform="rotate(180 238.304 127.834)" fill="black"/>
<rect x="151.535" y="128.35" width="4.98282" height="29.8969" transform="rotate(-90 151.535 128.35)" fill="black"/>
<rect x="151.535" y="115.892" width="4.98282" height="29.8969" transform="rotate(-90 151.535 115.892)" fill="black"/>
<rect x="151.535" y="103.435" width="4.98282" height="29.8969" transform="rotate(-90 151.535 103.435)" fill="black"/>
<path d="M223.392 109.818H217.098V106.349C217.098 102.88 206.073 102.355 200.808 102.88C194.514 103.507 193.831 109.905 200.808 110.665C226.863 113.503 224.132 115.807 224.132 119.279H218.209C218.209 114.23 197.569 115.802 192.386 111.828C188.684 108.99 185.634 98.0365 207.472 98.4643C226.354 98.8342 223.392 105.714 223.392 109.818Z" fill="black"/>
<path fill-rule="evenodd" clip-rule="evenodd" d="M218.218 118.96C218.346 121.118 215.763 123.932 211.942 124.313C206.671 124.837 195.633 124.628 195.633 121.161V117.698H195.424V117.693H189.332C189.332 118.161 189.294 118.666 189.253 119.192C188.94 123.279 188.524 128.713 205.27 129.041C220.915 129.347 224.608 123.405 224.086 118.96H218.218Z" fill="black"/>
</g>
</svg>
