<svg width="385" height="311" viewBox="0 0 385 311" fill="none" xmlns="http://www.w3.org/2000/svg">
<path d="M363.081 203.573C369.459 204.499 382.773 206.35 385 206.35V311L-64 307.355V160.359H-58.0852L-53.3882 165.392L-51.3006 158.624V136.062L-47.4734 132.071H-37.2096L-33.3824 134.674V152.203L-29.9031 153.938L-27.4676 150.12L-23.9883 153.938L-21.7268 150.12L-15.986 153.938L-14.2464 165.392L-4.50446 169.21V120.27H0.192596V107.253H5.06357V102.22L7.84695 101.526L11.6742 104.997H20.7203V107.253L28.0268 108.815V121.484H32.5498L33.7675 150.12H65.9508V103.435L70.6478 107.253H76.3886V26.3795L81.6075 28.6356V25.1646L84.391 26.3795L93.4371 16.8343L92.7412 0H97.9601V16.8343L105.962 25.1646H109.964L112.747 27.9414H115.878V101.526L119.532 103.435H123.533V102.22L127.534 99.7907V185.35H130.317V191.251H137.624L142.843 192.987H157.282V174.59H166.502V169.21C166.502 168.1 171.721 168.748 174.33 169.21V183.962H193.118C200.425 183.962 206.339 172.508 207.731 175.805C209.123 179.103 228.781 182.574 237.479 183.962C246.177 185.351 253.136 188.995 255.919 187.607C258.702 186.218 271.924 191.251 281.492 196.805C289.146 201.248 306.716 203.168 314.545 203.573H330.549H345.162H352.991L358.036 206.35L363.081 203.573Z" fill="#F8F8F8"/>
</svg>
