<svg width="296" height="86" viewBox="0 0 296 86" fill="none" xmlns="http://www.w3.org/2000/svg">
<rect x="0.999023" y="3.51953" width="8.04742" height="37.1418" fill="white"/>
<rect x="38.1133" y="18.0674" width="8.04739" height="37.1419" transform="rotate(90 38.1133 18.0674)" fill="white"/>
<rect x="46.1758" y="40.6611" width="8.04742" height="37.1418" transform="rotate(180 46.1758 40.6611)" fill="white"/>
<rect x="60.7178" y="40.6641" width="8.04742" height="37.1418" transform="rotate(180 60.7178 40.6641)" fill="white"/>
<rect x="60.7178" y="40.6641" width="6.1903" height="37.1419" transform="rotate(-90 60.7178 40.6641)" fill="white"/>
<rect x="60.7178" y="25.1895" width="6.1903" height="37.1419" transform="rotate(-90 60.7178 25.1895)" fill="white"/>
<path d="M60.7178 9.71289V3.52259H97.8597V9.71289H60.7178Z" fill="white"/>
<rect x="112.084" y="40.6631" width="8.04742" height="37.1418" transform="rotate(180 112.084 40.6631)" fill="white"/>
<path d="M147.082 40.6816L139.088 40.6817L128.851 23.4344L136.496 23.4344L147.082 40.6816Z" fill="white"/>
<path fill-rule="evenodd" clip-rule="evenodd" d="M132.169 3.52148H112.051V9.71191H132.169C134.733 9.71191 136.812 11.7905 136.812 14.3546C136.812 16.9187 134.733 18.9974 132.169 18.9974H112.051V25.1875H132.169C138.152 25.1875 143.002 20.3374 143.002 14.3545C143.002 8.37159 138.152 3.52148 132.169 3.52148Z" fill="white"/>
<path d="M147.082 40.6816L139.088 40.6817L128.851 23.4344L136.496 23.4344L147.082 40.6816Z" fill="white"/>
<rect x="112.084" y="40.6631" width="8.04742" height="37.1418" transform="rotate(180 112.084 40.6631)" fill="white"/>
<path d="M147.082 40.6816L139.088 40.6817L128.851 23.4344L136.496 23.4344L147.082 40.6816Z" fill="white"/>
<path fill-rule="evenodd" clip-rule="evenodd" d="M132.169 3.52148H112.051V9.71191H132.169C134.733 9.71191 136.812 11.7905 136.812 14.3546C136.812 16.9187 134.733 18.9974 132.169 18.9974H112.051V25.1875H132.169C138.152 25.1875 143.002 20.3374 143.002 14.3545C143.002 8.37159 138.152 3.52148 132.169 3.52148Z" fill="white"/>
<path d="M147.082 40.6816L139.088 40.6817L128.851 23.4344L136.496 23.4344L147.082 40.6816Z" fill="white"/>
<rect x="226.729" y="40.666" width="8.04742" height="18.5709" transform="rotate(180 226.729 40.666)" fill="white"/>
<path d="M226.235 26.194L218.965 26.4672L202.316 3.63988L209.757 3.36027L226.235 26.194Z" fill="white"/>
<path d="M219.293 26.194L226.557 26.4756L243.163 3.70695L235.729 3.4187L219.293 26.194Z" fill="white"/>
<rect x="161.343" y="40.6631" width="8.04742" height="37.1418" transform="rotate(180 161.343 40.6631)" fill="white"/>
<path d="M196.337 40.6816L188.343 40.6818L178.107 23.4342L185.752 23.4342L196.337 40.6816Z" fill="white"/>
<path fill-rule="evenodd" clip-rule="evenodd" d="M181.406 3.52148H161.287V9.71191H181.406C183.97 9.71191 186.048 11.7905 186.048 14.3546C186.048 16.9187 183.97 18.9974 181.406 18.9974H161.287V25.1875H181.406C187.389 25.1875 192.239 20.3374 192.239 14.3545C192.239 8.37159 187.389 3.52148 181.406 3.52148Z" fill="white"/>
<path d="M196.337 40.6816L188.343 40.6818L178.107 23.4342L185.752 23.4342L196.337 40.6816Z" fill="white"/>
<rect width="8.04741" height="44.0517" transform="matrix(-0.681989 -0.731363 0.731345 -0.682008 112.783 85.084)" fill="white"/>
<path d="M107.853 55.0361V48.8458H144.994V55.0361H107.853Z" fill="white"/>
<path d="M107.295 85.4307V79.2404H144.437V85.4307H107.295Z" fill="white"/>
<rect x="159.316" y="85.6719" width="8.04742" height="37.1418" transform="rotate(180 159.316 85.6719)" fill="white"/>
<rect x="159.316" y="85.6719" width="6.1903" height="37.1419" transform="rotate(-90 159.316 85.6719)" fill="white"/>
<rect x="159.316" y="70.1963" width="6.1903" height="37.1419" transform="rotate(-90 159.316 70.1963)" fill="white"/>
<rect x="159.316" y="54.7207" width="6.1903" height="37.1419" transform="rotate(-90 159.316 54.7207)" fill="white"/>
<rect x="210.678" y="85.6719" width="8.04742" height="37.1418" transform="rotate(180 210.678 85.6719)" fill="white"/>
<rect x="242.336" y="85.9814" width="8.04742" height="37.1418" transform="rotate(180 242.336 85.9814)" fill="white"/>
<rect width="6.19031" height="43.8322" transform="matrix(0.763597 -0.645693 0.645675 0.763613 205.972 52.5273)" fill="white"/>
<path d="M271.987 73.6025V67.4122H293.653V73.6025H271.987Z" fill="white"/>
<path d="M289.622 67.4131H295.812V85.984H289.622V67.4131Z" fill="white"/>
<path fill-rule="evenodd" clip-rule="evenodd" d="M248.469 66.9484C248.469 56.7774 256.714 48.5322 266.885 48.5322H275.242C284.086 48.5322 291.474 54.7664 293.251 63.08H286.439C284.783 57.806 279.856 53.9805 274.035 53.9805H268.154C260.974 53.9805 255.154 59.8006 255.154 66.9801C255.154 74.1596 260.974 79.9797 268.154 79.9797H274.035C278.795 79.9797 282.958 77.4209 285.223 73.6035H292.419C289.751 80.4852 283.066 85.3645 275.242 85.3645H266.885C256.714 85.3645 248.469 77.1193 248.469 66.9484Z" fill="white"/>
</svg>
