<svg width="835" height="621" viewBox="0 0 835 621" fill="none" xmlns="http://www.w3.org/2000/svg">
<path d="M48.8195 454.276C34.6128 456.341 4.95945 460.472 0 460.472V694L1000.03 685.867V357.844H986.852L976.391 369.075L971.741 353.971V303.625L963.217 294.718H940.357L931.833 300.527V339.642L924.084 343.515L918.66 334.994L910.911 343.515L905.874 334.994L893.088 343.515L889.213 369.075L867.516 377.595V268.383H857.054V239.337H846.206V228.106L840.006 226.557L831.482 234.302H811.334V239.337L795.061 242.823V271.094H784.987L782.275 334.994H710.596V230.817L700.134 239.337H687.348V58.8661L675.725 63.9007V56.1551L669.525 58.8661L649.377 37.5658L650.927 0H639.304V37.5658L621.481 56.1551H612.569L606.37 62.3516H599.396V226.557L591.259 230.817H582.347V228.106L573.436 222.684V413.612H567.237V426.779H550.964L539.34 430.652H507.181V389.6H486.646V377.595C486.646 375.117 475.022 376.562 469.21 377.595V410.514H427.365C411.092 410.514 397.918 384.953 394.818 392.312C391.719 399.67 347.936 407.415 328.563 410.514C309.19 413.612 293.692 421.745 287.493 418.647C281.294 415.548 251.847 426.779 230.537 439.172C213.489 449.086 174.356 453.372 156.92 454.276H121.274H88.7276H71.292L60.0558 460.472L48.8195 454.276Z" fill="#F8F8F8"/>
</svg>
