<svg width="744" height="217" viewBox="0 0 744 217" fill="none" xmlns="http://www.w3.org/2000/svg">
<rect y="8.90332" width="20.3058" height="93.7191" fill="black"/>
<rect x="93.7192" y="45.6094" width="20.3058" height="93.719" transform="rotate(90 93.7192 45.6094)" fill="black"/>
<rect x="114.025" y="102.622" width="20.3058" height="93.7191" transform="rotate(180 114.025 102.622)" fill="black"/>
<rect x="149.951" y="102.622" width="20.3058" height="93.7191" transform="rotate(180 149.951 102.622)" fill="black"/>
<rect x="149.951" y="102.622" width="15.6199" height="93.719" transform="rotate(-90 149.951 102.622)" fill="black"/>
<rect x="149.951" y="63.5723" width="15.6199" height="93.719" transform="rotate(-90 149.951 63.5723)" fill="black"/>
<path d="M149.951 24.5234V8.90359H243.67V24.5234H149.951Z" fill="black"/>
<rect x="279.595" y="102.622" width="20.3058" height="93.7191" transform="rotate(180 279.595 102.622)" fill="black"/>
<path d="M368.003 102.669L347.834 102.669L322.003 59.1492L341.294 59.1491L368.003 102.669Z" fill="black"/>
<path fill-rule="evenodd" clip-rule="evenodd" d="M330.36 8.90332H279.595V24.5234H330.36C336.83 24.5234 342.075 29.7684 342.075 36.2383C342.075 42.7083 336.83 47.9532 330.36 47.9532H279.595V63.5728H330.36C345.456 63.5728 357.694 51.3346 357.694 36.2381C357.694 21.1415 345.456 8.90332 330.36 8.90332Z" fill="black"/>
<path d="M368.003 102.669L347.834 102.669L322.003 59.1492L341.294 59.1491L368.003 102.669Z" fill="black"/>
<rect x="279.595" y="102.622" width="20.3058" height="93.7191" transform="rotate(180 279.595 102.622)" fill="black"/>
<path d="M368.003 102.669L347.834 102.669L322.003 59.1492L341.294 59.1491L368.003 102.669Z" fill="black"/>
<path fill-rule="evenodd" clip-rule="evenodd" d="M330.36 8.90332H279.595V24.5234H330.36C336.83 24.5234 342.075 29.7684 342.075 36.2383C342.075 42.7083 336.83 47.9532 330.36 47.9532H279.595V63.5728H330.36C345.456 63.5728 357.694 51.3346 357.694 36.2381C357.694 21.1415 345.456 8.90332 330.36 8.90332Z" fill="black"/>
<path d="M368.003 102.669L347.834 102.669L322.003 59.1492L341.294 59.1491L368.003 102.669Z" fill="black"/>
<rect x="569.563" y="102.61" width="20.3058" height="46.8596" transform="rotate(180 569.563 102.61)" fill="black"/>
<path d="M568.313 66.093L549.968 66.7819L507.956 9.18384L526.732 8.47855L568.313 66.093Z" fill="black"/>
<path d="M550.796 66.093L569.125 66.8032L611.029 9.35319L592.268 8.62611L550.796 66.093Z" fill="black"/>
<rect x="403.929" y="102.622" width="20.3058" height="93.7191" transform="rotate(180 403.929 102.622)" fill="black"/>
<path d="M492.337 102.669L472.167 102.669L446.337 59.1492L465.627 59.1491L492.337 102.669Z" fill="black"/>
<path fill-rule="evenodd" clip-rule="evenodd" d="M454.693 8.90332H403.929V63.5728H454.693C469.79 63.5728 482.028 51.3346 482.028 36.2381C482.028 21.1415 469.79 8.90332 454.693 8.90332ZM454.693 24.5234H403.929V47.9532H454.693C461.163 47.9532 466.408 42.7083 466.408 36.2383C466.408 29.7684 461.163 24.5234 454.693 24.5234Z" fill="black"/>
<path d="M492.337 102.669L472.167 102.669L446.337 59.1492L465.627 59.1491L492.337 102.669Z" fill="black"/>
<rect width="20.3058" height="111.154" transform="matrix(-0.681998 -0.731354 0.731353 -0.681999 282.042 214.68)" fill="black"/>
<path d="M269.599 138.86V123.24H363.318V138.86H269.599Z" fill="black"/>
<path d="M268.193 215.554V199.934H361.912V215.554H268.193Z" fill="black"/>
<rect x="399.243" y="216.178" width="20.3058" height="93.7191" transform="rotate(180 399.243 216.178)" fill="black"/>
<rect x="399.243" y="216.178" width="15.6199" height="93.719" transform="rotate(-90 399.243 216.178)" fill="black"/>
<rect x="399.243" y="177.128" width="15.6199" height="93.719" transform="rotate(-90 399.243 177.128)" fill="black"/>
<rect x="399.243" y="138.08" width="15.6199" height="93.719" transform="rotate(-90 399.243 138.08)" fill="black"/>
<rect x="528.888" y="216.178" width="20.3058" height="93.7191" transform="rotate(180 528.888 216.178)" fill="black"/>
<rect x="608.861" y="216.959" width="20.3058" height="93.7191" transform="rotate(180 608.861 216.959)" fill="black"/>
<rect width="15.6198" height="110.601" transform="matrix(0.763604 -0.645685 0.645683 0.763606 517.017 132.545)" fill="black"/>
<path d="M683.836 185.72V170.1H738.506V185.72H683.836Z" fill="black"/>
<path d="M728.353 170.1H743.973V216.959H728.353V170.1Z" fill="black"/>
<path fill-rule="evenodd" clip-rule="evenodd" d="M624.481 168.928C624.481 143.264 645.286 122.459 670.95 122.459H692.037C714.352 122.459 732.994 138.189 737.479 159.166H720.291C716.111 145.858 703.678 136.205 688.991 136.205H674.152C656.036 136.205 641.351 150.891 641.351 169.007C641.351 187.123 656.036 201.808 674.152 201.808H688.991C701.003 201.808 711.507 195.352 717.222 185.72H735.379C728.647 203.085 711.78 215.397 692.037 215.397H670.95C645.286 215.397 624.481 194.592 624.481 168.928Z" fill="black"/>
<mask id="mask0_1059_202" style="mask-type:alpha" maskUnits="userSpaceOnUse" x="0" y="8" width="744" height="209">
<rect y="8.90332" width="20.3058" height="93.7191" fill="black"/>
<rect x="93.7192" y="45.6094" width="20.3058" height="93.719" transform="rotate(90 93.7192 45.6094)" fill="black"/>
<rect x="114.025" y="102.622" width="20.3058" height="93.7191" transform="rotate(180 114.025 102.622)" fill="black"/>
<rect x="149.951" y="102.622" width="20.3058" height="93.7191" transform="rotate(180 149.951 102.622)" fill="black"/>
<rect x="149.951" y="102.622" width="15.6199" height="93.719" transform="rotate(-90 149.951 102.622)" fill="black"/>
<rect x="149.951" y="63.5723" width="15.6199" height="93.719" transform="rotate(-90 149.951 63.5723)" fill="black"/>
<path d="M149.951 24.5234V8.90359H243.67V24.5234H149.951Z" fill="black"/>
<rect x="279.595" y="102.622" width="20.3058" height="93.7191" transform="rotate(180 279.595 102.622)" fill="black"/>
<path d="M368.003 102.669L347.834 102.669L322.003 59.1492L341.294 59.1491L368.003 102.669Z" fill="black"/>
<path fill-rule="evenodd" clip-rule="evenodd" d="M330.36 8.90332H279.595V24.5234H330.36C336.83 24.5234 342.075 29.7684 342.075 36.2383C342.075 42.7083 336.83 47.9532 330.36 47.9532H279.595V63.5728H330.36C345.456 63.5728 357.694 51.3346 357.694 36.2381C357.694 21.1415 345.456 8.90332 330.36 8.90332Z" fill="black"/>
<path d="M368.003 102.669L347.834 102.669L322.003 59.1492L341.294 59.1491L368.003 102.669Z" fill="black"/>
<rect x="279.595" y="102.622" width="20.3058" height="93.7191" transform="rotate(180 279.595 102.622)" fill="black"/>
<path d="M368.003 102.669L347.834 102.669L322.003 59.1492L341.294 59.1491L368.003 102.669Z" fill="black"/>
<path fill-rule="evenodd" clip-rule="evenodd" d="M330.36 8.90332H279.595V24.5234H330.36C336.83 24.5234 342.075 29.7684 342.075 36.2383C342.075 42.7083 336.83 47.9532 330.36 47.9532H279.595V63.5728H330.36C345.456 63.5728 357.694 51.3346 357.694 36.2381C357.694 21.1415 345.456 8.90332 330.36 8.90332Z" fill="black"/>
<path d="M368.003 102.669L347.834 102.669L322.003 59.1492L341.294 59.1491L368.003 102.669Z" fill="black"/>
<rect x="569.563" y="102.61" width="20.3058" height="46.8596" transform="rotate(180 569.563 102.61)" fill="black"/>
<path d="M568.313 66.093L549.968 66.7819L507.956 9.18384L526.732 8.47855L568.313 66.093Z" fill="black"/>
<path d="M550.796 66.093L569.125 66.8032L611.029 9.35319L592.268 8.62611L550.796 66.093Z" fill="black"/>
<rect x="403.929" y="102.622" width="20.3058" height="93.7191" transform="rotate(180 403.929 102.622)" fill="black"/>
<path d="M492.337 102.669L472.167 102.669L446.337 59.1492L465.627 59.1491L492.337 102.669Z" fill="black"/>
<path fill-rule="evenodd" clip-rule="evenodd" d="M454.693 8.90332H403.929V63.5728H454.693C469.79 63.5728 482.028 51.3346 482.028 36.2381C482.028 21.1415 469.79 8.90332 454.693 8.90332ZM454.693 24.5234H403.929V47.9532H454.693C461.163 47.9532 466.408 42.7083 466.408 36.2383C466.408 29.7684 461.163 24.5234 454.693 24.5234Z" fill="black"/>
<path d="M492.337 102.669L472.167 102.669L446.337 59.1492L465.627 59.1491L492.337 102.669Z" fill="black"/>
<rect width="20.3058" height="111.154" transform="matrix(-0.681998 -0.731354 0.731353 -0.681999 282.042 214.68)" fill="black"/>
<path d="M269.599 138.86V123.24H363.318V138.86H269.599Z" fill="black"/>
<path d="M268.193 215.554V199.934H361.912V215.554H268.193Z" fill="black"/>
<rect x="399.243" y="216.178" width="20.3058" height="93.7191" transform="rotate(180 399.243 216.178)" fill="black"/>
<rect x="399.243" y="216.178" width="15.6199" height="93.719" transform="rotate(-90 399.243 216.178)" fill="black"/>
<rect x="399.243" y="177.128" width="15.6199" height="93.719" transform="rotate(-90 399.243 177.128)" fill="black"/>
<rect x="399.243" y="138.08" width="15.6199" height="93.719" transform="rotate(-90 399.243 138.08)" fill="black"/>
<rect x="528.888" y="216.178" width="20.3058" height="93.7191" transform="rotate(180 528.888 216.178)" fill="black"/>
<rect x="608.861" y="216.959" width="20.3058" height="93.7191" transform="rotate(180 608.861 216.959)" fill="black"/>
<rect width="15.6198" height="110.601" transform="matrix(0.763604 -0.645685 0.645683 0.763606 517.017 132.545)" fill="black"/>
<path d="M683.836 185.72V170.1H738.506V185.72H683.836Z" fill="black"/>
<path d="M728.353 170.1H743.973V216.959H728.353V170.1Z" fill="black"/>
<path fill-rule="evenodd" clip-rule="evenodd" d="M624.481 168.928C624.481 143.264 645.286 122.459 670.95 122.459H692.037C714.352 122.459 732.994 138.189 737.479 159.166H720.291C716.111 145.858 703.678 136.205 688.991 136.205H674.152C656.036 136.205 641.351 150.891 641.351 169.007C641.351 187.123 656.036 201.808 674.152 201.808H688.991C701.003 201.808 711.507 195.352 717.222 185.72H735.379C728.647 203.085 711.78 215.397 692.037 215.397H670.95C645.286 215.397 624.481 194.592 624.481 168.928Z" fill="black"/>
</mask>
<g mask="url(#mask0_1059_202)">
<rect x="-60" y="-18" width="131" height="128" fill="white"/>
</g>
</svg>
