<svg width="1520" height="524" viewBox="0 0 1520 524" fill="none" xmlns="http://www.w3.org/2000/svg">
<path d="M109.914 260.728L18.4141 362.698V523L236.414 509.642L557.414 362.698L469.414 242.472L289.414 169L236.414 197.498L180.414 242.472L109.914 260.728Z" fill="#6D6868" fill-opacity="0.75"/>
<path d="M1226.91 263.63L1153.41 297.344L1206.41 523H1506.41V297.344L1441.91 250.221L1335.91 169L1262.41 225.318L1226.91 263.63Z" fill="#494444" stroke="black"/>
<path d="M263.842 338.39L118.414 476.97L204.463 523L1372.41 476.97L1218.43 338.39L1120.31 237.516L996.013 203.238L832.973 29.8912L797.245 55.8443L711.699 1L678.99 29.8912L575.329 145.456L426.882 283.546L263.842 338.39Z" fill="black" fill-opacity="0.92" stroke="black"/>
<path fill-rule="evenodd" clip-rule="evenodd" d="M1519.83 523H0C184.872 428.011 456.773 368 759.914 368C1063.05 368 1334.96 428.011 1519.83 523Z" fill="#2A2B29"/>
</svg>
